<svg height='300px' width='300px'  fill="#000000" xmlns="http://www.w3.org/2000/svg" xmlns:xlink="http://www.w3.org/1999/xlink" version="1.1" x="0px" y="0px" viewBox="0 0 100 100" enable-background="new 0 0 100 100" xml:space="preserve"><g><path d="M43.787,38.125c0,1.104-0.896,2-2,2s-2-0.896-2-2s0.896-2,2-2c0.632,0,1.195,0.293,1.562,0.751   C43.623,37.219,43.787,37.653,43.787,38.125z"></path><circle cx="58.194" cy="38.125" r="2"></circle><path d="M31.208,62"></path><g><path d="M50.037,51.588l-3.953-0.886c-0.808-0.181-1.317-0.983-1.136-1.792c0.182-0.809,0.988-1.312,1.792-1.136l3.297,0.739    l3.297-0.739c0.809-0.18,1.611,0.328,1.792,1.136c0.181,0.809-0.327,1.611-1.136,1.792L50.037,51.588z"></path></g><path d="M54.987,57.256c-1.218-0.317-2.923-0.635-4.876-0.635c-2.095,0-3.903,0.365-5.132,0.703v3.137   c0.874-0.295,2.799-0.84,5.132-0.84c2.135,0,3.916,0.455,4.876,0.759V57.256z"></path><path d="M5,79.923c0.662-0.414,1.322-0.818,1.978-1.204c-0.368,1.16-0.705,2.805-0.564,4.727C6.728,87.715,6.819,91.903,6.833,95h1   c-0.014-3.116-0.106-7.331-0.422-11.629c-0.183-2.5,0.531-4.522,0.931-5.436c2.27-1.282,4.448-2.388,6.366-3.295   c-0.389,1.168-0.768,2.879-0.619,4.896C14.454,84.505,14.518,90.73,14.509,95h1c0.008-4.288-0.057-10.541-0.424-15.537   c-0.184-2.493,0.527-4.513,0.928-5.429c1.259-0.575,2.366-1.05,3.272-1.425c-0.102,1.963,0.42,4.256,2.503,5.914   c0.024,0.02,0.049,0.037,0.074,0.057c-0.131,0.898-0.165,1.799-0.099,2.689c0.345,4.696,0.421,9.978,0.421,13.73h1   c0-3.771-0.077-9.079-0.424-13.804c-0.046-0.631-0.032-1.268,0.029-1.905c2.165,1.646,4.384,3.081,6.655,4.304   c-0.038,0.571-0.046,1.142-0.005,1.706c0.279,3.801,0.382,7.154,0.411,9.699h1c-0.029-2.565-0.132-5.944-0.414-9.773   c-0.027-0.369-0.023-0.741-0.013-1.114c2.182,1.109,4.407,2.032,6.676,2.754c0.005,0.139,0.004,0.278,0.015,0.417   c0.232,3.157,0.342,5.73,0.39,7.717h1c-0.048-2.007-0.159-4.605-0.393-7.79c-0.001-0.016,0-0.031-0.001-0.046   c2.202,0.641,4.442,1.104,6.718,1.381c0.187,2.639,0.286,4.77,0.336,6.455h1.002c-0.049-1.658-0.147-3.751-0.328-6.344   c1.382,0.135,2.775,0.21,4.181,0.211c0.013,0,0.024,0,0.037,0c1.406-0.001,2.799-0.076,4.181-0.211   c-0.182,2.593-0.278,4.686-0.328,6.344h1.003c0.05-1.686,0.149-3.816,0.336-6.455c2.276-0.277,4.516-0.74,6.718-1.381   c-0.001,0.015-0.001,0.03-0.002,0.045c-0.234,3.185-0.345,5.784-0.393,7.791h1c0.048-1.986,0.158-4.561,0.391-7.718   c0.01-0.138,0.009-0.277,0.015-0.416c2.269-0.722,4.494-1.645,6.676-2.754c0.01,0.373,0.014,0.745-0.014,1.114   c-0.281,3.829-0.384,7.208-0.413,9.773h0.999c0.029-2.545,0.132-5.898,0.412-9.699c0.041-0.564,0.032-1.135-0.005-1.706   c2.27-1.223,4.489-2.658,6.654-4.304c0.061,0.638,0.075,1.274,0.028,1.904C76.967,85.92,76.89,91.229,76.89,95h1   c0-3.753,0.076-9.034,0.422-13.731c0.064-0.89,0.031-1.791-0.1-2.688c0.024-0.02,0.05-0.037,0.074-0.057   c2.079-1.655,2.604-3.944,2.499-5.915c0.906,0.374,2.015,0.851,3.276,1.426c0.4,0.917,1.111,2.936,0.927,5.429   C84.621,84.459,84.557,90.712,84.565,95h0.999c-0.008-4.27,0.057-10.495,0.422-15.463c0.148-2.019-0.23-3.729-0.62-4.896   c1.919,0.907,4.098,2.014,6.368,3.296c0.4,0.911,1.113,2.927,0.929,5.435c-0.315,4.298-0.407,8.513-0.421,11.629h0.999   c0.015-3.097,0.105-7.284,0.42-11.556c0.141-1.922-0.196-3.565-0.564-4.726c0.631,0.371,1.267,0.76,1.903,1.157v-3.52   C88.103,72.245,81.775,69.731,79.838,69c-0.604-1.338-2.16-4.932-3.016-8.252c-0.854-3.325-2.932-4.585-4.611-4.913   c0.478-3.441,0.048-6.937-0.487-10.171c-0.864-5.23-0.305-9.995-0.306-9.995c0.047-0.289,1.166-7.122,1.599-10.501   c0.663-5.181-0.453-9.458-3.318-12.714C65.91,8.149,59.277,5.967,49.984,5.967c-9.292,0-15.923,2.182-19.711,6.485   c-2.865,3.254-3.982,7.533-3.319,12.715c0.432,3.38,1.551,10.213,1.59,10.441c0.006,0.047,0.568,4.819-0.297,10.056   c-0.536,3.242-0.967,6.746-0.485,10.194c-1.662,0.359-3.672,1.63-4.509,4.889c-0.851,3.305-2.396,6.878-3.017,8.254   c-1.946,0.733-8.31,3.263-15.236,7.4V79.923z M31.28,81.178c-1.399-0.734-2.779-1.559-4.139-2.465   c-0.822-0.91-0.982-2.193-0.387-3.493c1.258-2.746,2.629-7.183,3.334-9.583c0.235-0.799,0.76-1.207,1.294-1.424   c1.209,1.466,2.542,2.785,3.966,3.94c-0.599,0.304-1.149,0.851-1.398,1.796c-0.543,2.06-1.596,5.863-2.548,8.186   C30.964,79.203,30.937,80.269,31.28,81.178z M68.268,37.826c-0.03,0.838-0.04,1.851-0.007,2.971   c-0.669,0.675-2.056,2.43-1.848,5.24c0.182,2.443-1.114,7.881-3.054,9.969c-0.362,0.391-0.717,0.629-1.057,0.711   c-0.717-1.091-3.684-4.593-12.266-4.593c-8.582,0-11.549,3.502-12.265,4.593c-0.34-0.082-0.695-0.32-1.058-0.711   c-1.938-2.088-3.234-7.526-3.054-9.969c0.188-2.533-0.921-4.209-1.632-5.01c0.538-3.128,0.98-6.352,1.07-7.016   c0.512-0.734,3.299-4.98,3.74-10.977c1.873,0.121,8.352,0.42,11.874-0.9c0.58-0.218,1.288-0.528,2.087-0.879   c4.57-2.007,12.221-5.37,15.274,0.6c0.028,0.068,2.787,6.936,2.136,15.717C68.203,37.665,68.229,37.749,68.268,37.826z    M32.664,45.963c-0.198,2.667,1.109,8.344,3.318,10.724c0.655,0.705,1.346,1.062,2.055,1.062c0.191,0,0.366-0.109,0.45-0.281   c0.021-0.043,2.221-4.344,11.55-4.344c9.265,0,11.53,4.303,11.551,4.344c0.083,0.172,0.258,0.281,0.449,0.281   c0.709,0,1.4-0.357,2.056-1.062c2.209-2.38,3.516-8.057,3.318-10.724c-0.124-1.668,0.403-2.879,0.921-3.661   c0.078,1.212,0.211,2.51,0.433,3.851c0.911,5.519,1.475,11.305-2.426,16.072c-4.247,5.19-10.461,8.415-16.218,8.415h-0.272   c-5.757,0-11.972-3.225-16.218-8.415c-3.901-4.769-3.337-10.555-2.424-16.072c0.132-0.802,0.232-1.588,0.309-2.352   c0.092-0.456,0.184-0.936,0.274-1.428C32.292,43.157,32.783,44.348,32.664,45.963z M37.853,83.95   c-1.597-0.516-3.173-1.134-4.726-1.856c-0.03-0.078-0.073-0.153-0.144-0.21c-0.943-0.767-1.194-2.058-0.656-3.37   c0.975-2.375,2.042-6.226,2.59-8.31c0.241-0.914,0.863-1.228,1.366-1.33c1.336,0.989,2.742,1.833,4.191,2.528   c-0.372,0.332-0.683,0.831-0.824,1.572c-0.38,2.001-1.125,5.696-1.832,7.969C37.486,82.012,37.512,83.068,37.853,83.95z    M45.061,85.552c-1.955-0.245-3.882-0.638-5.78-1.174c-0.689-0.733-0.889-1.912-0.506-3.138c0.722-2.319,1.475-6.058,1.859-8.078   c0.157-0.826,0.578-1.143,0.943-1.264c1.368,0.575,2.766,1.016,4.178,1.308c-0.147,0.336-0.242,0.751-0.273,1.258   c-0.123,1.994-0.375,5.679-0.676,7.952C44.655,83.551,44.756,84.667,45.061,85.552z M53.639,85.703   c-1.191,0.107-2.392,0.164-3.602,0.164c-1.326-0.001-2.639-0.072-3.942-0.201c-0.387-0.767-0.537-1.946-0.38-3.129   c0.306-2.301,0.559-6.011,0.683-8.017c0.041-0.665,0.184-0.985,0.303-1.144c1.048,0.168,2.1,0.264,3.147,0.264h0.272   c0.983,0,1.972-0.085,2.957-0.233c0.111,0.167,0.243,0.489,0.282,1.113c0.124,2.017,0.378,5.739,0.681,8.017   C54.201,83.739,54.043,84.937,53.639,85.703z M60.361,84.504c-1.865,0.503-3.759,0.859-5.677,1.084   c0.315-0.892,0.42-2.023,0.267-3.172c-0.299-2.249-0.551-5.947-0.675-7.952c-0.029-0.483-0.115-0.888-0.251-1.216   c1.441-0.285,2.87-0.729,4.268-1.309c0.336,0.149,0.689,0.481,0.831,1.222c0.383,2.021,1.135,5.757,1.859,8.079   C61.387,82.535,61.146,83.785,60.361,84.504z M66.773,81.884c-0.115,0.094-0.173,0.229-0.18,0.366   c-1.559,0.708-3.14,1.315-4.742,1.816c0.387-0.904,0.435-2.006,0.087-3.124c-0.711-2.275-1.453-5.968-1.832-7.968   c-0.132-0.693-0.416-1.172-0.757-1.503c1.48-0.699,2.918-1.552,4.282-2.558c0.47,0.136,0.991,0.471,1.207,1.289   c0.548,2.082,1.614,5.93,2.591,8.311C67.967,79.827,67.716,81.118,66.773,81.884z M72.128,79.158   c-0.064,0.047-0.11,0.108-0.145,0.175c-1.187,0.751-2.389,1.437-3.604,2.058c0.436-0.952,0.448-2.101-0.023-3.256   c-0.955-2.328-2.008-6.128-2.55-8.186c-0.231-0.881-0.729-1.409-1.279-1.725c1.44-1.157,2.788-2.481,4.011-3.955   c0.475,0.233,0.917,0.646,1.13,1.367c0.704,2.398,2.075,6.832,3.335,9.583C73.702,76.748,73.366,78.257,72.128,79.158z    M71.559,58.759c0.642,0.093,1.801,0.568,2.358,2.736c1.144,4.442,3.369,9.143,3.44,9.291c0.061,0.142,1.449,3.488-0.94,5.39   c-0.729,0.581-1.468,1.127-2.21,1.656c0.26-0.939,0.179-1.992-0.296-3.028c-1.233-2.694-2.588-7.076-3.285-9.448   c-0.274-0.936-0.843-1.513-1.481-1.872C70.27,61.965,71.049,60.379,71.559,58.759z M32.524,14.434   c3.194-3.628,9.068-5.467,17.46-5.467c8.394,0,14.269,1.84,17.462,5.469c2.271,2.58,3.144,6.062,2.594,10.352   c-0.206,1.612-0.581,4.084-0.915,6.222c-0.533-5.555-2.044-9.33-2.143-9.57c-3.498-6.844-11.689-3.248-16.585-1.099   c-0.779,0.342-1.47,0.646-2.036,0.858c-3.848,1.444-11.869,0.812-11.95,0.804l-0.514-0.042l-0.026,0.515   c-0.322,6.427-3.622,11.006-3.655,11.052l-0.076,0.103l-0.017,0.126c-0.004,0.028-0.186,1.391-0.462,3.233   c-0.06-1.05-0.138-1.714-0.149-1.807c-0.012-0.07-1.158-7.069-1.583-10.396C29.381,20.497,30.254,17.013,32.524,14.434z    M22.694,70.836c0.094-0.198,2.319-4.898,3.463-9.342c0.525-2.043,1.59-2.579,2.261-2.711c0.5,1.582,1.257,3.131,2.344,4.617   c-0.7,0.35-1.336,0.946-1.633,1.955c-0.698,2.374-2.053,6.759-3.285,9.448c-0.429,0.937-0.537,1.887-0.363,2.755   c-0.612-0.445-1.222-0.902-1.825-1.383C21.267,74.274,22.656,70.928,22.694,70.836z"></path></g></svg>